<?xml version="1.0" encoding="UTF-8" standalone="no"?>
<svg
   xmlns:dc="http://purl.org/dc/elements/1.1/"
   xmlns:cc="http://creativecommons.org/ns#"
   xmlns:rdf="http://www.w3.org/1999/02/22-rdf-syntax-ns#"
   xmlns:svg="http://www.w3.org/2000/svg"
   xmlns="http://www.w3.org/2000/svg"
   xmlns:sodipodi="http://sodipodi.sourceforge.net/DTD/sodipodi-0.dtd"
   xmlns:inkscape="http://www.inkscape.org/namespaces/inkscape"
   enable-background="new 0 0 24 24"
   height="24"
   viewBox="0 0 24 24"
   width="24"
   version="1.1"
   id="svg86"
   sodipodi:docname="home_repair_service-24px-home.svg"
   inkscape:version="1.0.1 (c497b03c, 2020-09-10)">
  <metadata
     id="metadata92">
    <rdf:RDF>
      <cc:Work
         rdf:about="">
        <dc:format>image/svg+xml</dc:format>
        <dc:type
           rdf:resource="http://purl.org/dc/dcmitype/StillImage" />
        <dc:title></dc:title>
      </cc:Work>
    </rdf:RDF>
  </metadata>
  <defs
     id="defs90" />
  <sodipodi:namedview
     pagecolor="#ffffff"
     bordercolor="#666666"
     borderopacity="1"
     objecttolerance="10"
     gridtolerance="10"
     guidetolerance="10"
     inkscape:pageopacity="0"
     inkscape:pageshadow="2"
     inkscape:window-width="706"
     inkscape:window-height="480"
     id="namedview88"
     showgrid="false"
     inkscape:zoom="26.958333"
     inkscape:cx="12"
     inkscape:cy="12"
     inkscape:window-x="0"
     inkscape:window-y="23"
     inkscape:window-maximized="0"
     inkscape:current-layer="svg86"
     inkscape:document-rotation="0" />
  <g
     id="g76">
    <rect
       fill="none"
       height="24"
       width="24"
       id="rect74" />
  </g>
  <g
     id="g84"
     style="fill:#e6e6e6">
    <g
       id="g82"
       style="fill:#e6e6e6">
      <polygon
         points="16,15 8,15 8,16 6,16 6,15 2,15 2,20 22,20 22,15 18,15 18,16 16,16 "
         id="polygon78"
         style="fill:#e6e6e6" />
      <path
         d="M 20,8 H 17 V 6 C 17,4.9 16.1,4 15,4 H 9 C 7.9,4 7,4.9 7,6 V 8 H 4 C 2.9,8 2,8.9 2,10 v 4 h 4 v -2 h 2 v 2 h 8 v -2 h 2 v 2 h 4 V 10 C 22,8.9 21.1,8 20,8 Z M 15,8 H 9 V 6 h 6 z"
         id="path80"
         style="fill:#e6e6e6" />
    </g>
  </g>
</svg>
