<?xml version="1.0" encoding="UTF-8" standalone="no"?>
<svg
   xmlns:dc="http://purl.org/dc/elements/1.1/"
   xmlns:cc="http://creativecommons.org/ns#"
   xmlns:rdf="http://www.w3.org/1999/02/22-rdf-syntax-ns#"
   xmlns:svg="http://www.w3.org/2000/svg"
   xmlns="http://www.w3.org/2000/svg"
   xmlns:sodipodi="http://sodipodi.sourceforge.net/DTD/sodipodi-0.dtd"
   xmlns:inkscape="http://www.inkscape.org/namespaces/inkscape"
   height="24"
   viewBox="0 0 24 24"
   width="24"
   version="1.1"
   id="svg369"
   sodipodi:docname="thumb_up_alt-24px-2-home.svg"
   inkscape:version="1.0.1 (c497b03c, 2020-09-10)">
  <metadata
     id="metadata375">
    <rdf:RDF>
      <cc:Work
         rdf:about="">
        <dc:format>image/svg+xml</dc:format>
        <dc:type
           rdf:resource="http://purl.org/dc/dcmitype/StillImage" />
        <dc:title></dc:title>
      </cc:Work>
    </rdf:RDF>
  </metadata>
  <defs
     id="defs373" />
  <sodipodi:namedview
     pagecolor="#ffffff"
     bordercolor="#666666"
     borderopacity="1"
     objecttolerance="10"
     gridtolerance="10"
     guidetolerance="10"
     inkscape:pageopacity="0"
     inkscape:pageshadow="2"
     inkscape:window-width="1011"
     inkscape:window-height="747"
     id="namedview371"
     showgrid="false"
     inkscape:zoom="27.875"
     inkscape:cx="12"
     inkscape:cy="12"
     inkscape:window-x="0"
     inkscape:window-y="23"
     inkscape:window-maximized="0"
     inkscape:current-layer="svg369"
     inkscape:document-rotation="0" />
  <path
     d="M24 24H0V0h24v24z"
     fill="none"
     id="path365" />
  <path
     d="M2 20h2c.55 0 1-.45 1-1v-9c0-.55-.45-1-1-1H2v11zm19.83-7.12c.11-.25.17-.52.17-.8V11c0-1.1-.9-2-2-2h-5.5l.92-4.65c.05-.22.02-.46-.08-.66-.23-.45-.52-.86-.88-1.22L14 2 7.59 8.41C7.21 8.79 7 9.3 7 9.83v7.84C7 18.95 8.05 20 9.34 20h8.11c.7 0 1.36-.37 1.72-.97l2.66-6.15z"
     id="path367"
     style="fill:#e6e6e6" />
</svg>
